<mxfile host="app.diagrams.net" modified="2023-04-21T14:07:12.619Z" agent="Mozilla/5.0 (Windows NT 10.0; Win64; x64) AppleWebKit/537.36 (KHTML, like Gecko) Chrome/112.0.0.0 Safari/537.36" etag="K0qLSCQiHWRrCGKdriz3" version="21.2.1" type="device">
  <diagram name="Страница 1" id="H4Dp96nIkFsKYbyXVLKD">
    <mxGraphModel dx="2524" dy="1098" grid="1" gridSize="10" guides="1" tooltips="1" connect="1" arrows="1" fold="1" page="1" pageScale="1" pageWidth="827" pageHeight="1169" math="0" shadow="0">
      <root>
        <mxCell id="0" />
        <mxCell id="1" parent="0" />
        <mxCell id="vHeOqlmhSoEBUIZGXAzU-68" value="" style="group" vertex="1" connectable="0" parent="1">
          <mxGeometry x="50" y="40" width="100" height="100" as="geometry" />
        </mxCell>
        <mxCell id="vHeOqlmhSoEBUIZGXAzU-64" value="" style="ellipse;whiteSpace=wrap;html=1;" vertex="1" parent="vHeOqlmhSoEBUIZGXAzU-68">
          <mxGeometry width="100" height="100" as="geometry" />
        </mxCell>
        <mxCell id="vHeOqlmhSoEBUIZGXAzU-65" value="" style="ellipse;whiteSpace=wrap;html=1;" vertex="1" parent="vHeOqlmhSoEBUIZGXAzU-68">
          <mxGeometry x="30" width="40" height="40" as="geometry" />
        </mxCell>
        <mxCell id="vHeOqlmhSoEBUIZGXAzU-70" value="" style="group" vertex="1" connectable="0" parent="vHeOqlmhSoEBUIZGXAzU-68">
          <mxGeometry x="20" y="12.5" width="60" height="67.5" as="geometry" />
        </mxCell>
        <mxCell id="vHeOqlmhSoEBUIZGXAzU-66" value="1" style="text;html=1;strokeColor=none;fillColor=none;align=center;verticalAlign=middle;whiteSpace=wrap;rounded=0;" vertex="1" parent="vHeOqlmhSoEBUIZGXAzU-70">
          <mxGeometry x="15" width="30" height="15" as="geometry" />
        </mxCell>
        <mxCell id="vHeOqlmhSoEBUIZGXAzU-69" value="&lt;div style=&quot;color: rgb(33, 33, 33); background-color: rgb(255, 255, 254); font-family: Consolas, &amp;quot;Courier New&amp;quot;, monospace; line-height: 16px;&quot;&gt;Колесникова Кристина&lt;/div&gt;" style="text;html=1;strokeColor=none;fillColor=none;align=center;verticalAlign=middle;whiteSpace=wrap;rounded=0;" vertex="1" parent="vHeOqlmhSoEBUIZGXAzU-70">
          <mxGeometry y="37.5" width="60" height="30" as="geometry" />
        </mxCell>
        <mxCell id="vHeOqlmhSoEBUIZGXAzU-72" value="" style="group" vertex="1" connectable="0" parent="1">
          <mxGeometry x="20" y="580" width="100" height="100" as="geometry" />
        </mxCell>
        <mxCell id="vHeOqlmhSoEBUIZGXAzU-73" value="" style="ellipse;whiteSpace=wrap;html=1;" vertex="1" parent="vHeOqlmhSoEBUIZGXAzU-72">
          <mxGeometry width="100" height="100" as="geometry" />
        </mxCell>
        <mxCell id="vHeOqlmhSoEBUIZGXAzU-74" value="" style="ellipse;whiteSpace=wrap;html=1;" vertex="1" parent="vHeOqlmhSoEBUIZGXAzU-72">
          <mxGeometry x="30" width="40" height="40" as="geometry" />
        </mxCell>
        <mxCell id="vHeOqlmhSoEBUIZGXAzU-75" value="" style="group" vertex="1" connectable="0" parent="vHeOqlmhSoEBUIZGXAzU-72">
          <mxGeometry x="20" y="12.5" width="60" height="67.5" as="geometry" />
        </mxCell>
        <mxCell id="vHeOqlmhSoEBUIZGXAzU-76" value="2" style="text;html=1;strokeColor=none;fillColor=none;align=center;verticalAlign=middle;whiteSpace=wrap;rounded=0;" vertex="1" parent="vHeOqlmhSoEBUIZGXAzU-75">
          <mxGeometry x="15" width="30" height="15" as="geometry" />
        </mxCell>
        <mxCell id="vHeOqlmhSoEBUIZGXAzU-77" value="&lt;div style=&quot;color: rgb(33, 33, 33); background-color: rgb(255, 255, 254); font-family: Consolas, &amp;quot;Courier New&amp;quot;, monospace; line-height: 16px;&quot;&gt;&lt;div style=&quot;line-height: 16px;&quot;&gt;Антонова Кира&lt;/div&gt;&lt;/div&gt;" style="text;html=1;strokeColor=none;fillColor=none;align=center;verticalAlign=middle;whiteSpace=wrap;rounded=0;" vertex="1" parent="vHeOqlmhSoEBUIZGXAzU-75">
          <mxGeometry y="37.5" width="60" height="30" as="geometry" />
        </mxCell>
        <mxCell id="vHeOqlmhSoEBUIZGXAzU-79" value="" style="group" vertex="1" connectable="0" parent="1">
          <mxGeometry x="40" y="310" width="100" height="100" as="geometry" />
        </mxCell>
        <mxCell id="vHeOqlmhSoEBUIZGXAzU-80" value="" style="ellipse;whiteSpace=wrap;html=1;" vertex="1" parent="vHeOqlmhSoEBUIZGXAzU-79">
          <mxGeometry width="100" height="100" as="geometry" />
        </mxCell>
        <mxCell id="vHeOqlmhSoEBUIZGXAzU-81" value="" style="ellipse;whiteSpace=wrap;html=1;" vertex="1" parent="vHeOqlmhSoEBUIZGXAzU-79">
          <mxGeometry x="30" width="40" height="40" as="geometry" />
        </mxCell>
        <mxCell id="vHeOqlmhSoEBUIZGXAzU-82" value="" style="group" vertex="1" connectable="0" parent="vHeOqlmhSoEBUIZGXAzU-79">
          <mxGeometry x="20" y="12.5" width="60" height="67.5" as="geometry" />
        </mxCell>
        <mxCell id="vHeOqlmhSoEBUIZGXAzU-83" value="3" style="text;html=1;strokeColor=none;fillColor=none;align=center;verticalAlign=middle;whiteSpace=wrap;rounded=0;" vertex="1" parent="vHeOqlmhSoEBUIZGXAzU-82">
          <mxGeometry x="15" width="30" height="15" as="geometry" />
        </mxCell>
        <mxCell id="vHeOqlmhSoEBUIZGXAzU-84" value="&lt;div style=&quot;color: rgb(33, 33, 33); background-color: rgb(255, 255, 254); font-family: Consolas, &amp;quot;Courier New&amp;quot;, monospace; line-height: 16px;&quot;&gt;&lt;div style=&quot;line-height: 16px;&quot;&gt;&lt;div style=&quot;line-height: 16px;&quot;&gt;Григорьева Мария&lt;/div&gt;&lt;/div&gt;&lt;/div&gt;" style="text;html=1;strokeColor=none;fillColor=none;align=center;verticalAlign=middle;whiteSpace=wrap;rounded=0;" vertex="1" parent="vHeOqlmhSoEBUIZGXAzU-82">
          <mxGeometry y="37.5" width="60" height="30" as="geometry" />
        </mxCell>
        <mxCell id="vHeOqlmhSoEBUIZGXAzU-92" value="" style="group" vertex="1" connectable="0" parent="1">
          <mxGeometry x="530" y="40" width="100" height="100" as="geometry" />
        </mxCell>
        <mxCell id="vHeOqlmhSoEBUIZGXAzU-93" value="" style="ellipse;whiteSpace=wrap;html=1;" vertex="1" parent="vHeOqlmhSoEBUIZGXAzU-92">
          <mxGeometry width="100" height="100" as="geometry" />
        </mxCell>
        <mxCell id="vHeOqlmhSoEBUIZGXAzU-94" value="" style="ellipse;whiteSpace=wrap;html=1;" vertex="1" parent="vHeOqlmhSoEBUIZGXAzU-92">
          <mxGeometry x="30" width="40" height="40" as="geometry" />
        </mxCell>
        <mxCell id="vHeOqlmhSoEBUIZGXAzU-95" value="" style="group" vertex="1" connectable="0" parent="vHeOqlmhSoEBUIZGXAzU-92">
          <mxGeometry x="20" y="12.5" width="60" height="67.5" as="geometry" />
        </mxCell>
        <mxCell id="vHeOqlmhSoEBUIZGXAzU-96" value="4" style="text;html=1;strokeColor=none;fillColor=none;align=center;verticalAlign=middle;whiteSpace=wrap;rounded=0;" vertex="1" parent="vHeOqlmhSoEBUIZGXAzU-95">
          <mxGeometry x="15" width="30" height="15" as="geometry" />
        </mxCell>
        <mxCell id="vHeOqlmhSoEBUIZGXAzU-97" value="&lt;div style=&quot;color: rgb(33, 33, 33); background-color: rgb(255, 255, 254); font-family: Consolas, &amp;quot;Courier New&amp;quot;, monospace; line-height: 16px;&quot;&gt;&lt;div style=&quot;line-height: 16px;&quot;&gt;&lt;div style=&quot;line-height: 16px;&quot;&gt;&lt;div style=&quot;line-height: 16px;&quot;&gt;Фомин Иван&lt;/div&gt;&lt;/div&gt;&lt;/div&gt;&lt;/div&gt;" style="text;html=1;strokeColor=none;fillColor=none;align=center;verticalAlign=middle;whiteSpace=wrap;rounded=0;" vertex="1" parent="vHeOqlmhSoEBUIZGXAzU-95">
          <mxGeometry y="40" width="60" height="27.5" as="geometry" />
        </mxCell>
        <mxCell id="vHeOqlmhSoEBUIZGXAzU-98" value="" style="group" vertex="1" connectable="0" parent="1">
          <mxGeometry x="600" y="350" width="100" height="100" as="geometry" />
        </mxCell>
        <mxCell id="vHeOqlmhSoEBUIZGXAzU-99" value="" style="ellipse;whiteSpace=wrap;html=1;" vertex="1" parent="vHeOqlmhSoEBUIZGXAzU-98">
          <mxGeometry width="100" height="100" as="geometry" />
        </mxCell>
        <mxCell id="vHeOqlmhSoEBUIZGXAzU-100" value="" style="ellipse;whiteSpace=wrap;html=1;" vertex="1" parent="vHeOqlmhSoEBUIZGXAzU-98">
          <mxGeometry x="30" width="40" height="40" as="geometry" />
        </mxCell>
        <mxCell id="vHeOqlmhSoEBUIZGXAzU-101" value="" style="group" vertex="1" connectable="0" parent="vHeOqlmhSoEBUIZGXAzU-98">
          <mxGeometry x="20" y="12.5" width="60" height="67.5" as="geometry" />
        </mxCell>
        <mxCell id="vHeOqlmhSoEBUIZGXAzU-102" value="5" style="text;html=1;strokeColor=none;fillColor=none;align=center;verticalAlign=middle;whiteSpace=wrap;rounded=0;" vertex="1" parent="vHeOqlmhSoEBUIZGXAzU-101">
          <mxGeometry x="15" width="30" height="15" as="geometry" />
        </mxCell>
        <mxCell id="vHeOqlmhSoEBUIZGXAzU-103" value="&lt;div style=&quot;color: rgb(33, 33, 33); background-color: rgb(255, 255, 254); font-family: Consolas, &amp;quot;Courier New&amp;quot;, monospace; line-height: 16px;&quot;&gt;&lt;div style=&quot;line-height: 16px;&quot;&gt;&lt;div style=&quot;line-height: 16px;&quot;&gt;&lt;div style=&quot;line-height: 16px;&quot;&gt;Федоров Константин&lt;/div&gt;&lt;/div&gt;&lt;/div&gt;&lt;/div&gt;" style="text;html=1;strokeColor=none;fillColor=none;align=center;verticalAlign=middle;whiteSpace=wrap;rounded=0;" vertex="1" parent="vHeOqlmhSoEBUIZGXAzU-101">
          <mxGeometry y="37.5" width="60" height="30" as="geometry" />
        </mxCell>
        <mxCell id="vHeOqlmhSoEBUIZGXAzU-104" value="" style="group" vertex="1" connectable="0" parent="1">
          <mxGeometry x="610" y="170" width="100" height="100" as="geometry" />
        </mxCell>
        <mxCell id="vHeOqlmhSoEBUIZGXAzU-105" value="" style="ellipse;whiteSpace=wrap;html=1;" vertex="1" parent="vHeOqlmhSoEBUIZGXAzU-104">
          <mxGeometry width="100" height="100" as="geometry" />
        </mxCell>
        <mxCell id="vHeOqlmhSoEBUIZGXAzU-106" value="" style="ellipse;whiteSpace=wrap;html=1;" vertex="1" parent="vHeOqlmhSoEBUIZGXAzU-104">
          <mxGeometry x="30" width="40" height="40" as="geometry" />
        </mxCell>
        <mxCell id="vHeOqlmhSoEBUIZGXAzU-107" value="" style="group" vertex="1" connectable="0" parent="vHeOqlmhSoEBUIZGXAzU-104">
          <mxGeometry x="20" y="12.5" width="60" height="67.5" as="geometry" />
        </mxCell>
        <mxCell id="vHeOqlmhSoEBUIZGXAzU-108" value="6" style="text;html=1;strokeColor=none;fillColor=none;align=center;verticalAlign=middle;whiteSpace=wrap;rounded=0;" vertex="1" parent="vHeOqlmhSoEBUIZGXAzU-107">
          <mxGeometry x="15" width="30" height="15" as="geometry" />
        </mxCell>
        <mxCell id="vHeOqlmhSoEBUIZGXAzU-109" value="&lt;div style=&quot;color: rgb(33, 33, 33); background-color: rgb(255, 255, 254); font-family: Consolas, &amp;quot;Courier New&amp;quot;, monospace; line-height: 16px;&quot;&gt;&lt;div style=&quot;line-height: 16px;&quot;&gt;&lt;div style=&quot;line-height: 16px;&quot;&gt;&lt;div style=&quot;line-height: 16px;&quot;&gt;Некрасова Ольга&lt;/div&gt;&lt;/div&gt;&lt;/div&gt;&lt;/div&gt;" style="text;html=1;strokeColor=none;fillColor=none;align=center;verticalAlign=middle;whiteSpace=wrap;rounded=0;" vertex="1" parent="vHeOqlmhSoEBUIZGXAzU-107">
          <mxGeometry y="37.5" width="60" height="30" as="geometry" />
        </mxCell>
        <mxCell id="vHeOqlmhSoEBUIZGXAzU-110" value="" style="group" vertex="1" connectable="0" parent="1">
          <mxGeometry x="280" width="100" height="100" as="geometry" />
        </mxCell>
        <mxCell id="vHeOqlmhSoEBUIZGXAzU-111" value="" style="ellipse;whiteSpace=wrap;html=1;" vertex="1" parent="vHeOqlmhSoEBUIZGXAzU-110">
          <mxGeometry width="100" height="100" as="geometry" />
        </mxCell>
        <mxCell id="vHeOqlmhSoEBUIZGXAzU-112" value="" style="ellipse;whiteSpace=wrap;html=1;" vertex="1" parent="vHeOqlmhSoEBUIZGXAzU-110">
          <mxGeometry x="30" width="40" height="40" as="geometry" />
        </mxCell>
        <mxCell id="vHeOqlmhSoEBUIZGXAzU-113" value="" style="group" vertex="1" connectable="0" parent="vHeOqlmhSoEBUIZGXAzU-110">
          <mxGeometry x="20" y="12.5" width="60" height="67.5" as="geometry" />
        </mxCell>
        <mxCell id="vHeOqlmhSoEBUIZGXAzU-114" value="7" style="text;html=1;strokeColor=none;fillColor=none;align=center;verticalAlign=middle;whiteSpace=wrap;rounded=0;" vertex="1" parent="vHeOqlmhSoEBUIZGXAzU-113">
          <mxGeometry x="15" width="30" height="15" as="geometry" />
        </mxCell>
        <mxCell id="vHeOqlmhSoEBUIZGXAzU-115" value="&lt;div style=&quot;color: rgb(33, 33, 33); background-color: rgb(255, 255, 254); font-family: Consolas, &amp;quot;Courier New&amp;quot;, monospace; line-height: 16px;&quot;&gt;&lt;div style=&quot;line-height: 16px;&quot;&gt;&lt;div style=&quot;line-height: 16px;&quot;&gt;&lt;div style=&quot;line-height: 16px;&quot;&gt;Ильинская Мария&lt;/div&gt;&lt;/div&gt;&lt;/div&gt;&lt;/div&gt;" style="text;html=1;strokeColor=none;fillColor=none;align=center;verticalAlign=middle;whiteSpace=wrap;rounded=0;" vertex="1" parent="vHeOqlmhSoEBUIZGXAzU-113">
          <mxGeometry y="37.5" width="60" height="30" as="geometry" />
        </mxCell>
        <mxCell id="vHeOqlmhSoEBUIZGXAzU-116" value="" style="group" vertex="1" connectable="0" parent="1">
          <mxGeometry x="510" y="485" width="100" height="100" as="geometry" />
        </mxCell>
        <mxCell id="vHeOqlmhSoEBUIZGXAzU-117" value="" style="ellipse;whiteSpace=wrap;html=1;" vertex="1" parent="vHeOqlmhSoEBUIZGXAzU-116">
          <mxGeometry width="100" height="100" as="geometry" />
        </mxCell>
        <mxCell id="vHeOqlmhSoEBUIZGXAzU-118" value="" style="ellipse;whiteSpace=wrap;html=1;" vertex="1" parent="vHeOqlmhSoEBUIZGXAzU-116">
          <mxGeometry x="30" width="40" height="40" as="geometry" />
        </mxCell>
        <mxCell id="vHeOqlmhSoEBUIZGXAzU-119" value="" style="group" vertex="1" connectable="0" parent="vHeOqlmhSoEBUIZGXAzU-116">
          <mxGeometry x="20" y="12.5" width="60" height="67.5" as="geometry" />
        </mxCell>
        <mxCell id="vHeOqlmhSoEBUIZGXAzU-120" value="8" style="text;html=1;strokeColor=none;fillColor=none;align=center;verticalAlign=middle;whiteSpace=wrap;rounded=0;" vertex="1" parent="vHeOqlmhSoEBUIZGXAzU-119">
          <mxGeometry x="15" width="30" height="15" as="geometry" />
        </mxCell>
        <mxCell id="vHeOqlmhSoEBUIZGXAzU-121" value="&lt;div style=&quot;color: rgb(33, 33, 33); background-color: rgb(255, 255, 254); font-family: Consolas, &amp;quot;Courier New&amp;quot;, monospace; line-height: 16px;&quot;&gt;&lt;div style=&quot;line-height: 16px;&quot;&gt;&lt;div style=&quot;line-height: 16px;&quot;&gt;&lt;div style=&quot;line-height: 16px;&quot;&gt;Авдеева Анастасия&lt;/div&gt;&lt;/div&gt;&lt;/div&gt;&lt;/div&gt;" style="text;html=1;strokeColor=none;fillColor=none;align=center;verticalAlign=middle;whiteSpace=wrap;rounded=0;" vertex="1" parent="vHeOqlmhSoEBUIZGXAzU-119">
          <mxGeometry y="37.5" width="60" height="30" as="geometry" />
        </mxCell>
        <mxCell id="vHeOqlmhSoEBUIZGXAzU-168" value="" style="endArrow=classic;html=1;rounded=0;exitX=0.5;exitY=1;exitDx=0;exitDy=0;entryX=0.5;entryY=1;entryDx=0;entryDy=0;" edge="1" parent="vHeOqlmhSoEBUIZGXAzU-116" target="vHeOqlmhSoEBUIZGXAzU-99">
          <mxGeometry width="50" height="50" relative="1" as="geometry">
            <mxPoint x="100" y="45" as="sourcePoint" />
            <mxPoint x="90" y="215" as="targetPoint" />
          </mxGeometry>
        </mxCell>
        <mxCell id="vHeOqlmhSoEBUIZGXAzU-122" value="" style="group" vertex="1" connectable="0" parent="1">
          <mxGeometry x="270" y="460" width="100" height="100" as="geometry" />
        </mxCell>
        <mxCell id="vHeOqlmhSoEBUIZGXAzU-123" value="" style="ellipse;whiteSpace=wrap;html=1;" vertex="1" parent="vHeOqlmhSoEBUIZGXAzU-122">
          <mxGeometry width="100" height="100" as="geometry" />
        </mxCell>
        <mxCell id="vHeOqlmhSoEBUIZGXAzU-124" value="" style="ellipse;whiteSpace=wrap;html=1;" vertex="1" parent="vHeOqlmhSoEBUIZGXAzU-122">
          <mxGeometry x="30" width="40" height="40" as="geometry" />
        </mxCell>
        <mxCell id="vHeOqlmhSoEBUIZGXAzU-125" value="" style="group" vertex="1" connectable="0" parent="vHeOqlmhSoEBUIZGXAzU-122">
          <mxGeometry x="20" y="12.5" width="60" height="67.5" as="geometry" />
        </mxCell>
        <mxCell id="vHeOqlmhSoEBUIZGXAzU-126" value="9" style="text;html=1;strokeColor=none;fillColor=none;align=center;verticalAlign=middle;whiteSpace=wrap;rounded=0;" vertex="1" parent="vHeOqlmhSoEBUIZGXAzU-125">
          <mxGeometry x="15" width="30" height="15" as="geometry" />
        </mxCell>
        <mxCell id="vHeOqlmhSoEBUIZGXAzU-127" value="&lt;div style=&quot;color: rgb(33, 33, 33); background-color: rgb(255, 255, 254); font-family: Consolas, &amp;quot;Courier New&amp;quot;, monospace; line-height: 16px;&quot;&gt;&lt;div style=&quot;line-height: 16px;&quot;&gt;&lt;div style=&quot;line-height: 16px;&quot;&gt;&lt;div style=&quot;line-height: 16px;&quot;&gt;Фомин Фёдор&lt;/div&gt;&lt;/div&gt;&lt;/div&gt;&lt;/div&gt;" style="text;html=1;strokeColor=none;fillColor=none;align=center;verticalAlign=middle;whiteSpace=wrap;rounded=0;" vertex="1" parent="vHeOqlmhSoEBUIZGXAzU-125">
          <mxGeometry y="40" width="60" height="27.5" as="geometry" />
        </mxCell>
        <mxCell id="vHeOqlmhSoEBUIZGXAzU-128" value="" style="group" vertex="1" connectable="0" parent="1">
          <mxGeometry x="330" y="250" width="100" height="100" as="geometry" />
        </mxCell>
        <mxCell id="vHeOqlmhSoEBUIZGXAzU-129" value="" style="ellipse;whiteSpace=wrap;html=1;" vertex="1" parent="vHeOqlmhSoEBUIZGXAzU-128">
          <mxGeometry width="100" height="100" as="geometry" />
        </mxCell>
        <mxCell id="vHeOqlmhSoEBUIZGXAzU-130" value="" style="ellipse;whiteSpace=wrap;html=1;" vertex="1" parent="vHeOqlmhSoEBUIZGXAzU-128">
          <mxGeometry x="30" width="40" height="40" as="geometry" />
        </mxCell>
        <mxCell id="vHeOqlmhSoEBUIZGXAzU-131" value="" style="group" vertex="1" connectable="0" parent="vHeOqlmhSoEBUIZGXAzU-128">
          <mxGeometry x="20" y="12.5" width="60" height="67.5" as="geometry" />
        </mxCell>
        <mxCell id="vHeOqlmhSoEBUIZGXAzU-132" value="10" style="text;html=1;strokeColor=none;fillColor=none;align=center;verticalAlign=middle;whiteSpace=wrap;rounded=0;" vertex="1" parent="vHeOqlmhSoEBUIZGXAzU-131">
          <mxGeometry x="15" width="30" height="15" as="geometry" />
        </mxCell>
        <mxCell id="vHeOqlmhSoEBUIZGXAzU-133" value="&lt;div style=&quot;color: rgb(33, 33, 33); background-color: rgb(255, 255, 254); font-family: Consolas, &amp;quot;Courier New&amp;quot;, monospace; line-height: 16px;&quot;&gt;&lt;div style=&quot;line-height: 16px;&quot;&gt;&lt;div style=&quot;line-height: 16px;&quot;&gt;&lt;div style=&quot;line-height: 16px;&quot;&gt;Иванова Милана&lt;/div&gt;&lt;/div&gt;&lt;/div&gt;&lt;/div&gt;" style="text;html=1;strokeColor=none;fillColor=none;align=center;verticalAlign=middle;whiteSpace=wrap;rounded=0;" vertex="1" parent="vHeOqlmhSoEBUIZGXAzU-131">
          <mxGeometry y="37.5" width="60" height="30" as="geometry" />
        </mxCell>
        <mxCell id="vHeOqlmhSoEBUIZGXAzU-159" value="" style="endArrow=classic;html=1;rounded=0;exitX=0.5;exitY=1;exitDx=0;exitDy=0;" edge="1" parent="1" source="vHeOqlmhSoEBUIZGXAzU-64">
          <mxGeometry width="50" height="50" relative="1" as="geometry">
            <mxPoint x="80" y="250" as="sourcePoint" />
            <mxPoint x="90" y="310" as="targetPoint" />
          </mxGeometry>
        </mxCell>
        <mxCell id="vHeOqlmhSoEBUIZGXAzU-160" value="" style="endArrow=classic;html=1;rounded=0;exitX=0.917;exitY=0.778;exitDx=0;exitDy=0;entryX=0.5;entryY=0;entryDx=0;entryDy=0;exitPerimeter=0;" edge="1" parent="1" source="vHeOqlmhSoEBUIZGXAzU-64" target="vHeOqlmhSoEBUIZGXAzU-130">
          <mxGeometry width="50" height="50" relative="1" as="geometry">
            <mxPoint x="110" y="150" as="sourcePoint" />
            <mxPoint x="100" y="320" as="targetPoint" />
          </mxGeometry>
        </mxCell>
        <mxCell id="vHeOqlmhSoEBUIZGXAzU-161" value="" style="endArrow=classic;html=1;rounded=0;exitX=0;exitY=0.5;exitDx=0;exitDy=0;entryX=1;entryY=0.5;entryDx=0;entryDy=0;" edge="1" parent="1" source="vHeOqlmhSoEBUIZGXAzU-123" target="vHeOqlmhSoEBUIZGXAzU-73">
          <mxGeometry width="50" height="50" relative="1" as="geometry">
            <mxPoint x="120" y="160" as="sourcePoint" />
            <mxPoint x="110" y="330" as="targetPoint" />
          </mxGeometry>
        </mxCell>
        <mxCell id="vHeOqlmhSoEBUIZGXAzU-162" value="" style="endArrow=classic;html=1;rounded=0;exitX=1;exitY=1;exitDx=0;exitDy=0;entryX=0.5;entryY=0;entryDx=0;entryDy=0;" edge="1" parent="1" source="vHeOqlmhSoEBUIZGXAzU-80" target="vHeOqlmhSoEBUIZGXAzU-124">
          <mxGeometry width="50" height="50" relative="1" as="geometry">
            <mxPoint x="190" y="350" as="sourcePoint" />
            <mxPoint x="180" y="520" as="targetPoint" />
          </mxGeometry>
        </mxCell>
        <mxCell id="vHeOqlmhSoEBUIZGXAzU-163" value="" style="endArrow=classic;html=1;rounded=0;exitX=1;exitY=0.5;exitDx=0;exitDy=0;entryX=0;entryY=0.5;entryDx=0;entryDy=0;" edge="1" parent="1" source="vHeOqlmhSoEBUIZGXAzU-111" target="vHeOqlmhSoEBUIZGXAzU-93">
          <mxGeometry width="50" height="50" relative="1" as="geometry">
            <mxPoint x="140" y="180" as="sourcePoint" />
            <mxPoint x="130" y="350" as="targetPoint" />
          </mxGeometry>
        </mxCell>
        <mxCell id="vHeOqlmhSoEBUIZGXAzU-164" value="" style="endArrow=classic;html=1;rounded=0;exitX=1;exitY=0.5;exitDx=0;exitDy=0;entryX=0;entryY=0.5;entryDx=0;entryDy=0;" edge="1" parent="1" source="vHeOqlmhSoEBUIZGXAzU-64" target="vHeOqlmhSoEBUIZGXAzU-111">
          <mxGeometry width="50" height="50" relative="1" as="geometry">
            <mxPoint x="150" y="190" as="sourcePoint" />
            <mxPoint x="140" y="360" as="targetPoint" />
          </mxGeometry>
        </mxCell>
        <mxCell id="vHeOqlmhSoEBUIZGXAzU-165" value="" style="endArrow=classic;html=1;rounded=0;exitX=0.5;exitY=1;exitDx=0;exitDy=0;entryX=0;entryY=0.5;entryDx=0;entryDy=0;" edge="1" parent="1" source="vHeOqlmhSoEBUIZGXAzU-111" target="vHeOqlmhSoEBUIZGXAzU-105">
          <mxGeometry width="50" height="50" relative="1" as="geometry">
            <mxPoint x="160" y="200" as="sourcePoint" />
            <mxPoint x="150" y="370" as="targetPoint" />
          </mxGeometry>
        </mxCell>
        <mxCell id="vHeOqlmhSoEBUIZGXAzU-166" value="" style="endArrow=classic;html=1;rounded=0;exitX=0.5;exitY=1;exitDx=0;exitDy=0;entryX=0.5;entryY=0;entryDx=0;entryDy=0;" edge="1" parent="1" target="vHeOqlmhSoEBUIZGXAzU-100">
          <mxGeometry width="50" height="50" relative="1" as="geometry">
            <mxPoint x="660" y="270" as="sourcePoint" />
            <mxPoint x="650" y="440" as="targetPoint" />
          </mxGeometry>
        </mxCell>
        <mxCell id="vHeOqlmhSoEBUIZGXAzU-167" value="" style="endArrow=classic;html=1;rounded=0;exitX=0;exitY=0.5;exitDx=0;exitDy=0;" edge="1" parent="1" source="vHeOqlmhSoEBUIZGXAzU-117" target="vHeOqlmhSoEBUIZGXAzU-129">
          <mxGeometry width="50" height="50" relative="1" as="geometry">
            <mxPoint x="450" y="540" as="sourcePoint" />
            <mxPoint x="440" y="710" as="targetPoint" />
          </mxGeometry>
        </mxCell>
        <mxCell id="vHeOqlmhSoEBUIZGXAzU-169" value="" style="endArrow=classic;html=1;rounded=0;exitX=0.5;exitY=1;exitDx=0;exitDy=0;entryX=1;entryY=1;entryDx=0;entryDy=0;" edge="1" parent="1" source="vHeOqlmhSoEBUIZGXAzU-117" target="vHeOqlmhSoEBUIZGXAzU-123">
          <mxGeometry width="50" height="50" relative="1" as="geometry">
            <mxPoint x="430" y="520" as="sourcePoint" />
            <mxPoint x="420" y="690" as="targetPoint" />
          </mxGeometry>
        </mxCell>
        <mxCell id="vHeOqlmhSoEBUIZGXAzU-170" value="" style="group" vertex="1" connectable="0" parent="1">
          <mxGeometry x="40" y="740" width="100" height="100" as="geometry" />
        </mxCell>
        <mxCell id="vHeOqlmhSoEBUIZGXAzU-171" value="" style="ellipse;whiteSpace=wrap;html=1;" vertex="1" parent="vHeOqlmhSoEBUIZGXAzU-170">
          <mxGeometry width="100" height="100" as="geometry" />
        </mxCell>
        <mxCell id="vHeOqlmhSoEBUIZGXAzU-172" value="" style="ellipse;whiteSpace=wrap;html=1;" vertex="1" parent="vHeOqlmhSoEBUIZGXAzU-170">
          <mxGeometry x="30" width="40" height="40" as="geometry" />
        </mxCell>
        <mxCell id="vHeOqlmhSoEBUIZGXAzU-173" value="" style="group" vertex="1" connectable="0" parent="vHeOqlmhSoEBUIZGXAzU-170">
          <mxGeometry x="20" y="12.5" width="60" height="67.5" as="geometry" />
        </mxCell>
        <mxCell id="vHeOqlmhSoEBUIZGXAzU-174" value="11" style="text;html=1;strokeColor=none;fillColor=none;align=center;verticalAlign=middle;whiteSpace=wrap;rounded=0;" vertex="1" parent="vHeOqlmhSoEBUIZGXAzU-173">
          <mxGeometry x="15" width="30" height="15" as="geometry" />
        </mxCell>
        <mxCell id="vHeOqlmhSoEBUIZGXAzU-175" value="&lt;div style=&quot;color: rgb(33, 33, 33); background-color: rgb(255, 255, 254); font-family: Consolas, &amp;quot;Courier New&amp;quot;, monospace; line-height: 16px;&quot;&gt;&lt;div style=&quot;line-height: 16px;&quot;&gt;&lt;div style=&quot;line-height: 16px;&quot;&gt;Кириловец Иван&lt;/div&gt;&lt;/div&gt;&lt;/div&gt;" style="text;html=1;strokeColor=none;fillColor=none;align=center;verticalAlign=middle;whiteSpace=wrap;rounded=0;" vertex="1" parent="vHeOqlmhSoEBUIZGXAzU-173">
          <mxGeometry y="37.5" width="60" height="30" as="geometry" />
        </mxCell>
        <mxCell id="vHeOqlmhSoEBUIZGXAzU-176" value="" style="group" vertex="1" connectable="0" parent="1">
          <mxGeometry x="400" y="710" width="100" height="100" as="geometry" />
        </mxCell>
        <mxCell id="vHeOqlmhSoEBUIZGXAzU-177" value="" style="ellipse;whiteSpace=wrap;html=1;" vertex="1" parent="vHeOqlmhSoEBUIZGXAzU-176">
          <mxGeometry width="100" height="100" as="geometry" />
        </mxCell>
        <mxCell id="vHeOqlmhSoEBUIZGXAzU-178" value="" style="ellipse;whiteSpace=wrap;html=1;" vertex="1" parent="vHeOqlmhSoEBUIZGXAzU-176">
          <mxGeometry x="30" width="40" height="40" as="geometry" />
        </mxCell>
        <mxCell id="vHeOqlmhSoEBUIZGXAzU-179" value="" style="group" vertex="1" connectable="0" parent="vHeOqlmhSoEBUIZGXAzU-176">
          <mxGeometry x="20" y="12.5" width="60" height="67.5" as="geometry" />
        </mxCell>
        <mxCell id="vHeOqlmhSoEBUIZGXAzU-180" value="15" style="text;html=1;strokeColor=none;fillColor=none;align=center;verticalAlign=middle;whiteSpace=wrap;rounded=0;" vertex="1" parent="vHeOqlmhSoEBUIZGXAzU-179">
          <mxGeometry x="15" width="30" height="15" as="geometry" />
        </mxCell>
        <mxCell id="vHeOqlmhSoEBUIZGXAzU-181" value="&lt;div style=&quot;color: rgb(33, 33, 33); background-color: rgb(255, 255, 254); font-family: Consolas, &amp;quot;Courier New&amp;quot;, monospace; line-height: 16px;&quot;&gt;&lt;div style=&quot;line-height: 16px;&quot;&gt;&lt;div style=&quot;line-height: 16px;&quot;&gt;Грин Захар&lt;/div&gt;&lt;/div&gt;&lt;/div&gt;" style="text;html=1;strokeColor=none;fillColor=none;align=center;verticalAlign=middle;whiteSpace=wrap;rounded=0;" vertex="1" parent="vHeOqlmhSoEBUIZGXAzU-179">
          <mxGeometry y="37.5" width="60" height="30" as="geometry" />
        </mxCell>
        <mxCell id="vHeOqlmhSoEBUIZGXAzU-183" value="" style="group" vertex="1" connectable="0" parent="1">
          <mxGeometry x="590" y="650" width="100" height="100" as="geometry" />
        </mxCell>
        <mxCell id="vHeOqlmhSoEBUIZGXAzU-184" value="" style="ellipse;whiteSpace=wrap;html=1;" vertex="1" parent="vHeOqlmhSoEBUIZGXAzU-183">
          <mxGeometry width="100" height="100" as="geometry" />
        </mxCell>
        <mxCell id="vHeOqlmhSoEBUIZGXAzU-185" value="" style="ellipse;whiteSpace=wrap;html=1;" vertex="1" parent="vHeOqlmhSoEBUIZGXAzU-183">
          <mxGeometry x="30" width="40" height="40" as="geometry" />
        </mxCell>
        <mxCell id="vHeOqlmhSoEBUIZGXAzU-186" value="" style="group" vertex="1" connectable="0" parent="vHeOqlmhSoEBUIZGXAzU-183">
          <mxGeometry x="20" y="12.5" width="60" height="67.5" as="geometry" />
        </mxCell>
        <mxCell id="vHeOqlmhSoEBUIZGXAzU-187" value="14" style="text;html=1;strokeColor=none;fillColor=none;align=center;verticalAlign=middle;whiteSpace=wrap;rounded=0;" vertex="1" parent="vHeOqlmhSoEBUIZGXAzU-186">
          <mxGeometry x="15" width="30" height="15" as="geometry" />
        </mxCell>
        <mxCell id="vHeOqlmhSoEBUIZGXAzU-188" value="&lt;div style=&quot;color: rgb(33, 33, 33); background-color: rgb(255, 255, 254); font-family: Consolas, &amp;quot;Courier New&amp;quot;, monospace; line-height: 16px;&quot;&gt;&lt;div style=&quot;line-height: 16px;&quot;&gt;&lt;div style=&quot;line-height: 16px;&quot;&gt;Гринько Кирилл&lt;/div&gt;&lt;/div&gt;&lt;/div&gt;" style="text;html=1;strokeColor=none;fillColor=none;align=center;verticalAlign=middle;whiteSpace=wrap;rounded=0;" vertex="1" parent="vHeOqlmhSoEBUIZGXAzU-186">
          <mxGeometry y="37.5" width="60" height="30" as="geometry" />
        </mxCell>
        <mxCell id="vHeOqlmhSoEBUIZGXAzU-189" value="" style="group" vertex="1" connectable="0" parent="1">
          <mxGeometry x="820" y="535" width="100" height="100" as="geometry" />
        </mxCell>
        <mxCell id="vHeOqlmhSoEBUIZGXAzU-190" value="" style="ellipse;whiteSpace=wrap;html=1;" vertex="1" parent="vHeOqlmhSoEBUIZGXAzU-189">
          <mxGeometry width="100" height="100" as="geometry" />
        </mxCell>
        <mxCell id="vHeOqlmhSoEBUIZGXAzU-191" value="" style="ellipse;whiteSpace=wrap;html=1;" vertex="1" parent="vHeOqlmhSoEBUIZGXAzU-189">
          <mxGeometry x="30" width="40" height="40" as="geometry" />
        </mxCell>
        <mxCell id="vHeOqlmhSoEBUIZGXAzU-192" value="" style="group" vertex="1" connectable="0" parent="vHeOqlmhSoEBUIZGXAzU-189">
          <mxGeometry x="20" y="12.5" width="60" height="67.5" as="geometry" />
        </mxCell>
        <mxCell id="vHeOqlmhSoEBUIZGXAzU-193" value="13" style="text;html=1;strokeColor=none;fillColor=none;align=center;verticalAlign=middle;whiteSpace=wrap;rounded=0;" vertex="1" parent="vHeOqlmhSoEBUIZGXAzU-192">
          <mxGeometry x="15" width="30" height="15" as="geometry" />
        </mxCell>
        <mxCell id="vHeOqlmhSoEBUIZGXAzU-194" value="&lt;div style=&quot;color: rgb(33, 33, 33); background-color: rgb(255, 255, 254); font-family: Consolas, &amp;quot;Courier New&amp;quot;, monospace; line-height: 16px;&quot;&gt;&lt;div style=&quot;line-height: 16px;&quot;&gt;&lt;div style=&quot;line-height: 16px;&quot;&gt;Лесун Иван&lt;/div&gt;&lt;/div&gt;&lt;/div&gt;" style="text;html=1;strokeColor=none;fillColor=none;align=center;verticalAlign=middle;whiteSpace=wrap;rounded=0;" vertex="1" parent="vHeOqlmhSoEBUIZGXAzU-192">
          <mxGeometry y="37.5" width="60" height="30" as="geometry" />
        </mxCell>
        <mxCell id="vHeOqlmhSoEBUIZGXAzU-195" value="" style="group" vertex="1" connectable="0" parent="1">
          <mxGeometry x="790" y="170" width="100" height="100" as="geometry" />
        </mxCell>
        <mxCell id="vHeOqlmhSoEBUIZGXAzU-196" value="" style="ellipse;whiteSpace=wrap;html=1;" vertex="1" parent="vHeOqlmhSoEBUIZGXAzU-195">
          <mxGeometry width="100" height="100" as="geometry" />
        </mxCell>
        <mxCell id="vHeOqlmhSoEBUIZGXAzU-197" value="" style="ellipse;whiteSpace=wrap;html=1;" vertex="1" parent="vHeOqlmhSoEBUIZGXAzU-195">
          <mxGeometry x="30" width="40" height="40" as="geometry" />
        </mxCell>
        <mxCell id="vHeOqlmhSoEBUIZGXAzU-198" value="" style="group" vertex="1" connectable="0" parent="vHeOqlmhSoEBUIZGXAzU-195">
          <mxGeometry x="20" y="12.5" width="60" height="67.5" as="geometry" />
        </mxCell>
        <mxCell id="vHeOqlmhSoEBUIZGXAzU-199" value="12" style="text;html=1;strokeColor=none;fillColor=none;align=center;verticalAlign=middle;whiteSpace=wrap;rounded=0;" vertex="1" parent="vHeOqlmhSoEBUIZGXAzU-198">
          <mxGeometry x="15" width="30" height="15" as="geometry" />
        </mxCell>
        <mxCell id="vHeOqlmhSoEBUIZGXAzU-200" value="&lt;div style=&quot;color: rgb(33, 33, 33); background-color: rgb(255, 255, 254); font-family: Consolas, &amp;quot;Courier New&amp;quot;, monospace; line-height: 16px;&quot;&gt;&lt;div style=&quot;line-height: 16px;&quot;&gt;&lt;div style=&quot;line-height: 16px;&quot;&gt;Лев Фёдор&lt;/div&gt;&lt;/div&gt;&lt;/div&gt;" style="text;html=1;strokeColor=none;fillColor=none;align=center;verticalAlign=middle;whiteSpace=wrap;rounded=0;" vertex="1" parent="vHeOqlmhSoEBUIZGXAzU-198">
          <mxGeometry y="37.5" width="60" height="30" as="geometry" />
        </mxCell>
        <mxCell id="vHeOqlmhSoEBUIZGXAzU-201" value="" style="endArrow=classic;html=1;rounded=0;exitX=0.5;exitY=0;exitDx=0;exitDy=0;entryX=1;entryY=1;entryDx=0;entryDy=0;" edge="1" parent="1" source="vHeOqlmhSoEBUIZGXAzU-172" target="vHeOqlmhSoEBUIZGXAzU-73">
          <mxGeometry width="50" height="50" relative="1" as="geometry">
            <mxPoint x="570" y="595" as="sourcePoint" />
            <mxPoint x="365" y="555" as="targetPoint" />
          </mxGeometry>
        </mxCell>
        <mxCell id="vHeOqlmhSoEBUIZGXAzU-202" value="" style="endArrow=classic;html=1;rounded=0;exitX=0.5;exitY=0;exitDx=0;exitDy=0;entryX=0;entryY=0.5;entryDx=0;entryDy=0;" edge="1" parent="1" source="vHeOqlmhSoEBUIZGXAzU-178" target="vHeOqlmhSoEBUIZGXAzU-184">
          <mxGeometry width="50" height="50" relative="1" as="geometry">
            <mxPoint x="100" y="750" as="sourcePoint" />
            <mxPoint x="115" y="675" as="targetPoint" />
          </mxGeometry>
        </mxCell>
        <mxCell id="vHeOqlmhSoEBUIZGXAzU-203" value="" style="endArrow=classic;html=1;rounded=0;exitX=1;exitY=0.5;exitDx=0;exitDy=0;entryX=0;entryY=1;entryDx=0;entryDy=0;" edge="1" parent="1" source="vHeOqlmhSoEBUIZGXAzU-184" target="vHeOqlmhSoEBUIZGXAzU-190">
          <mxGeometry width="50" height="50" relative="1" as="geometry">
            <mxPoint x="110" y="760" as="sourcePoint" />
            <mxPoint x="125" y="685" as="targetPoint" />
          </mxGeometry>
        </mxCell>
        <mxCell id="vHeOqlmhSoEBUIZGXAzU-204" value="" style="endArrow=classic;html=1;rounded=0;exitX=0.5;exitY=0;exitDx=0;exitDy=0;entryX=0.5;entryY=1;entryDx=0;entryDy=0;" edge="1" parent="1" source="vHeOqlmhSoEBUIZGXAzU-191" target="vHeOqlmhSoEBUIZGXAzU-196">
          <mxGeometry width="50" height="50" relative="1" as="geometry">
            <mxPoint x="700" y="710" as="sourcePoint" />
            <mxPoint x="845" y="630" as="targetPoint" />
          </mxGeometry>
        </mxCell>
        <mxCell id="vHeOqlmhSoEBUIZGXAzU-205" value="" style="endArrow=classic;html=1;rounded=0;exitX=0;exitY=0.5;exitDx=0;exitDy=0;entryX=0.99;entryY=0.645;entryDx=0;entryDy=0;entryPerimeter=0;" edge="1" parent="1" source="vHeOqlmhSoEBUIZGXAzU-196" target="vHeOqlmhSoEBUIZGXAzU-93">
          <mxGeometry width="50" height="50" relative="1" as="geometry">
            <mxPoint x="710" y="720" as="sourcePoint" />
            <mxPoint x="710" y="220" as="targetPoint" />
          </mxGeometry>
        </mxCell>
        <mxCell id="vHeOqlmhSoEBUIZGXAzU-206" value="" style="endArrow=classic;html=1;rounded=0;exitX=1;exitY=0.5;exitDx=0;exitDy=0;entryX=0.032;entryY=0.302;entryDx=0;entryDy=0;entryPerimeter=0;" edge="1" parent="1" source="vHeOqlmhSoEBUIZGXAzU-99" target="vHeOqlmhSoEBUIZGXAzU-190">
          <mxGeometry width="50" height="50" relative="1" as="geometry">
            <mxPoint x="720" y="730" as="sourcePoint" />
            <mxPoint x="865" y="650" as="targetPoint" />
          </mxGeometry>
        </mxCell>
        <mxCell id="vHeOqlmhSoEBUIZGXAzU-207" value="" style="endArrow=classic;html=1;rounded=0;entryX=0;entryY=0.5;entryDx=0;entryDy=0;exitX=1;exitY=0.5;exitDx=0;exitDy=0;" edge="1" parent="1" source="vHeOqlmhSoEBUIZGXAzU-73" target="vHeOqlmhSoEBUIZGXAzU-177">
          <mxGeometry width="50" height="50" relative="1" as="geometry">
            <mxPoint x="110" y="650" as="sourcePoint" />
            <mxPoint x="255" y="570" as="targetPoint" />
          </mxGeometry>
        </mxCell>
      </root>
    </mxGraphModel>
  </diagram>
</mxfile>
